<mxfile host="app.diagrams.net" agent="Mozilla/5.0 (Windows NT 10.0; Win64; x64) AppleWebKit/537.36 (KHTML, like Gecko) Chrome/136.0.0.0 Safari/537.36" version="26.2.14">
  <diagram name="Page-1" id="BBbashbwkVtUofB7s5gc">
    <mxGraphModel dx="573" dy="16" grid="0" gridSize="10" guides="1" tooltips="1" connect="1" arrows="1" fold="1" page="0" pageScale="1" pageWidth="850" pageHeight="1100" math="0" shadow="0">
      <root>
        <mxCell id="0" />
        <mxCell id="1" parent="0" />
        <mxCell id="hEEuJzlS_s5F5CLPRled-17" style="edgeStyle=orthogonalEdgeStyle;rounded=0;orthogonalLoop=1;jettySize=auto;html=1;entryX=0.5;entryY=1;entryDx=0;entryDy=0;" edge="1" parent="1" source="hEEuJzlS_s5F5CLPRled-13" target="hEEuJzlS_s5F5CLPRled-14">
          <mxGeometry relative="1" as="geometry" />
        </mxCell>
        <mxCell id="hEEuJzlS_s5F5CLPRled-13" value="" style="rounded=0;whiteSpace=wrap;html=1;" vertex="1" parent="1">
          <mxGeometry x="910" y="750" width="190" height="130" as="geometry" />
        </mxCell>
        <mxCell id="hEEuJzlS_s5F5CLPRled-1" value="" style="rounded=0;whiteSpace=wrap;html=1;fillColor=#f5f5f5;fontColor=#333333;strokeColor=#666666;" vertex="1" parent="1">
          <mxGeometry x="720" y="680" width="80" height="80" as="geometry" />
        </mxCell>
        <mxCell id="hEEuJzlS_s5F5CLPRled-2" value="" style="rounded=0;whiteSpace=wrap;html=1;fillColor=#f5f5f5;fontColor=#333333;strokeColor=#666666;" vertex="1" parent="1">
          <mxGeometry x="730" y="690" width="80" height="80" as="geometry" />
        </mxCell>
        <mxCell id="hEEuJzlS_s5F5CLPRled-18" style="edgeStyle=orthogonalEdgeStyle;rounded=0;orthogonalLoop=1;jettySize=auto;html=1;entryX=0.5;entryY=1;entryDx=0;entryDy=0;" edge="1" parent="1" source="hEEuJzlS_s5F5CLPRled-3" target="hEEuJzlS_s5F5CLPRled-7">
          <mxGeometry relative="1" as="geometry" />
        </mxCell>
        <mxCell id="hEEuJzlS_s5F5CLPRled-3" value="" style="rounded=0;whiteSpace=wrap;html=1;fillColor=#f5f5f5;fontColor=#333333;strokeColor=#666666;" vertex="1" parent="1">
          <mxGeometry x="740" y="700" width="80" height="80" as="geometry" />
        </mxCell>
        <mxCell id="hEEuJzlS_s5F5CLPRled-5" value="&lt;font style=&quot;font-size: 9px;&quot;&gt;(B, T, H, W)&lt;/font&gt;" style="text;html=1;align=center;verticalAlign=middle;whiteSpace=wrap;rounded=0;" vertex="1" parent="1">
          <mxGeometry x="740" y="780" width="80" height="30" as="geometry" />
        </mxCell>
        <mxCell id="hEEuJzlS_s5F5CLPRled-7" value="Conv2d &lt;span class=&quot;katex&quot;&gt;&lt;span class=&quot;katex-mathml&quot;&gt;&lt;math xmlns=&quot;http://www.w3.org/1998/Math/MathML&quot;&gt;&lt;mrow&gt;&lt;msub&gt;&lt;mi&gt;D&lt;/mi&gt;&lt;mtext&gt;in&lt;/mtext&gt;&lt;/msub&gt;&lt;mo&gt;→&lt;/mo&gt;&lt;mi&gt;C&lt;/mi&gt;&lt;/mrow&gt;D_{\text{in}}\to C&lt;/math&gt;&lt;/span&gt;&lt;/span&gt;, 3×3 + ReLU" style="rounded=1;whiteSpace=wrap;html=1;fillColor=#008a00;fontColor=#ffffff;strokeColor=#005700;" vertex="1" parent="1">
          <mxGeometry x="920" y="830" width="170" height="40" as="geometry" />
        </mxCell>
        <mxCell id="hEEuJzlS_s5F5CLPRled-9" value="Mamba&lt;div&gt;(d_model=C, d_state=16, d_conv=4, expand=2)&lt;/div&gt;" style="rounded=1;whiteSpace=wrap;html=1;fillColor=#0050ef;fontColor=#ffffff;strokeColor=#001DBC;" vertex="1" parent="1">
          <mxGeometry x="920" y="760" width="170" height="60" as="geometry" />
        </mxCell>
        <mxCell id="hEEuJzlS_s5F5CLPRled-14" value="" style="rounded=0;whiteSpace=wrap;html=1;" vertex="1" parent="1">
          <mxGeometry x="910" y="600" width="190" height="130" as="geometry" />
        </mxCell>
        <mxCell id="hEEuJzlS_s5F5CLPRled-15" value="Conv2d &lt;span class=&quot;katex&quot;&gt;&lt;span class=&quot;katex-mathml&quot;&gt;&lt;math xmlns=&quot;http://www.w3.org/1998/Math/MathML&quot;&gt;&lt;mrow&gt;&lt;msub&gt;&lt;mi&gt;D&lt;/mi&gt;&lt;mtext&gt;in&lt;/mtext&gt;&lt;/msub&gt;&lt;mo&gt;→&lt;/mo&gt;&lt;mi&gt;C&lt;/mi&gt;&lt;/mrow&gt;D_{\text{in}}\to C&lt;/math&gt;&lt;/span&gt;&lt;/span&gt;, 3×3 + ReLU" style="rounded=1;whiteSpace=wrap;html=1;fillColor=#008a00;fontColor=#ffffff;strokeColor=#005700;" vertex="1" parent="1">
          <mxGeometry x="920" y="680" width="170" height="40" as="geometry" />
        </mxCell>
        <mxCell id="hEEuJzlS_s5F5CLPRled-20" style="edgeStyle=orthogonalEdgeStyle;rounded=0;orthogonalLoop=1;jettySize=auto;html=1;entryX=0;entryY=0.5;entryDx=0;entryDy=0;" edge="1" parent="1" source="hEEuJzlS_s5F5CLPRled-16" target="hEEuJzlS_s5F5CLPRled-19">
          <mxGeometry relative="1" as="geometry">
            <Array as="points">
              <mxPoint x="1005" y="590" />
              <mxPoint x="1115" y="590" />
              <mxPoint x="1115" y="740" />
            </Array>
          </mxGeometry>
        </mxCell>
        <mxCell id="hEEuJzlS_s5F5CLPRled-16" value="Mamba&lt;div&gt;(d_model=C, d_state=16, d_conv=4, expand=2)&lt;/div&gt;" style="rounded=1;whiteSpace=wrap;html=1;fillColor=#0050ef;fontColor=#ffffff;strokeColor=#001DBC;" vertex="1" parent="1">
          <mxGeometry x="920" y="610" width="170" height="60" as="geometry" />
        </mxCell>
        <mxCell id="hEEuJzlS_s5F5CLPRled-25" style="edgeStyle=orthogonalEdgeStyle;rounded=0;orthogonalLoop=1;jettySize=auto;html=1;entryX=0;entryY=0.5;entryDx=0;entryDy=0;" edge="1" parent="1" source="hEEuJzlS_s5F5CLPRled-19" target="hEEuJzlS_s5F5CLPRled-24">
          <mxGeometry relative="1" as="geometry" />
        </mxCell>
        <mxCell id="hEEuJzlS_s5F5CLPRled-19" value="Extract&amp;nbsp;&lt;div&gt;&lt;span class=&quot;katex&quot;&gt;&lt;span class=&quot;katex-mathml&quot;&gt;&lt;math xmlns=&quot;http://www.w3.org/1998/Math/MathML&quot;&gt;&lt;mrow&gt;&lt;mo stretchy=&quot;false&quot;&gt;(&lt;/mo&gt;&lt;mi&gt;i&lt;/mi&gt;&lt;mtext&gt; ⁣&lt;/mtext&gt;&lt;mo&gt;=&lt;/mo&gt;&lt;mtext&gt; ⁣&lt;/mtext&gt;&lt;mo stretchy=&quot;false&quot;&gt;⌊&lt;/mo&gt;&lt;mi&gt;K&lt;/mi&gt;&lt;mi mathvariant=&quot;normal&quot;&gt;/&lt;/mi&gt;&lt;mn&gt;2&lt;/mn&gt;&lt;mo stretchy=&quot;false&quot;&gt;⌋&lt;/mo&gt;&lt;mo separator=&quot;true&quot;&gt;,&lt;/mo&gt;&lt;mi&gt;j&lt;/mi&gt;&lt;mtext&gt; ⁣&lt;/mtext&gt;&lt;mo&gt;=&lt;/mo&gt;&lt;mtext&gt; ⁣&lt;/mtext&gt;&lt;mo stretchy=&quot;false&quot;&gt;⌊&lt;/mo&gt;&lt;mi&gt;K&lt;/mi&gt;&lt;mi mathvariant=&quot;normal&quot;&gt;/&lt;/mi&gt;&lt;mn&gt;2&lt;/mn&gt;&lt;mo stretchy=&quot;false&quot;&gt;⌋&lt;/mo&gt;&lt;mo stretchy=&quot;false&quot;&gt;)&lt;/mo&gt;&lt;/mrow&gt;(i\!=\!\lfloor K/2\rfloor, j\!=\!\lfloor K/2\rfloor)&lt;/math&gt;&lt;/span&gt;&lt;/span&gt;&amp;nbsp;→ &lt;span class=&quot;katex&quot;&gt;&lt;span class=&quot;katex-mathml&quot;&gt;&lt;math xmlns=&quot;http://www.w3.org/1998/Math/MathML&quot;&gt;&lt;mrow&gt;&lt;mo stretchy=&quot;false&quot;&gt;(&lt;/mo&gt;&lt;mi&gt;B&lt;/mi&gt;&lt;mo separator=&quot;true&quot;&gt;,&lt;/mo&gt;&lt;mi&gt;T&lt;/mi&gt;&lt;mo separator=&quot;true&quot;&gt;,&lt;/mo&gt;&lt;mi&gt;C&lt;/mi&gt;&lt;mo stretchy=&quot;false&quot;&gt;)&lt;/mo&gt;&lt;/mrow&gt;(B, T, C)&lt;/math&gt;&lt;/span&gt;&lt;br&gt;&lt;/span&gt;&lt;/div&gt;" style="rounded=0;whiteSpace=wrap;html=1;fillColor=#fff2cc;strokeColor=#d6b656;" vertex="1" parent="1">
          <mxGeometry x="1140" y="720" width="210" height="40" as="geometry" />
        </mxCell>
        <mxCell id="hEEuJzlS_s5F5CLPRled-21" value="Input" style="text;html=1;align=center;verticalAlign=middle;whiteSpace=wrap;rounded=0;" vertex="1" parent="1">
          <mxGeometry x="740" y="650" width="80" height="30" as="geometry" />
        </mxCell>
        <mxCell id="hEEuJzlS_s5F5CLPRled-22" value="Encoder Layers (2)" style="text;html=1;align=center;verticalAlign=middle;whiteSpace=wrap;rounded=0;" vertex="1" parent="1">
          <mxGeometry x="910" y="560" width="190" height="30" as="geometry" />
        </mxCell>
        <mxCell id="hEEuJzlS_s5F5CLPRled-29" style="edgeStyle=orthogonalEdgeStyle;rounded=0;orthogonalLoop=1;jettySize=auto;html=1;entryX=0.5;entryY=1;entryDx=0;entryDy=0;" edge="1" parent="1" source="hEEuJzlS_s5F5CLPRled-24" target="hEEuJzlS_s5F5CLPRled-28">
          <mxGeometry relative="1" as="geometry" />
        </mxCell>
        <mxCell id="hEEuJzlS_s5F5CLPRled-24" value="Temporal Attention" style="rounded=1;whiteSpace=wrap;html=1;fillColor=#d80073;fontColor=#ffffff;strokeColor=#A50040;" vertex="1" parent="1">
          <mxGeometry x="1370" y="720" width="120" height="40" as="geometry" />
        </mxCell>
        <mxCell id="hEEuJzlS_s5F5CLPRled-28" value="" style="rounded=1;whiteSpace=wrap;html=1;rotation=90;fillColor=#f5f5f5;fontColor=#333333;strokeColor=#666666;" vertex="1" parent="1">
          <mxGeometry x="1451.5" y="725" width="160" height="30" as="geometry" />
        </mxCell>
        <mxCell id="hEEuJzlS_s5F5CLPRled-30" value="" style="ellipse;whiteSpace=wrap;html=1;aspect=fixed;fillColor=#000000;" vertex="1" parent="1">
          <mxGeometry x="1521.5" y="666.5" width="20" height="20" as="geometry" />
        </mxCell>
        <mxCell id="hEEuJzlS_s5F5CLPRled-31" value="" style="ellipse;whiteSpace=wrap;html=1;aspect=fixed;fillColor=#000000;" vertex="1" parent="1">
          <mxGeometry x="1521.5" y="691.5" width="20" height="20" as="geometry" />
        </mxCell>
        <mxCell id="hEEuJzlS_s5F5CLPRled-32" value="" style="ellipse;whiteSpace=wrap;html=1;aspect=fixed;fillColor=#000000;" vertex="1" parent="1">
          <mxGeometry x="1521.5" y="716.5" width="20" height="20" as="geometry" />
        </mxCell>
        <mxCell id="hEEuJzlS_s5F5CLPRled-33" value="" style="ellipse;whiteSpace=wrap;html=1;aspect=fixed;fillColor=#000000;" vertex="1" parent="1">
          <mxGeometry x="1521.5" y="741.5" width="20" height="20" as="geometry" />
        </mxCell>
        <mxCell id="hEEuJzlS_s5F5CLPRled-34" value="" style="ellipse;whiteSpace=wrap;html=1;aspect=fixed;fillColor=#000000;" vertex="1" parent="1">
          <mxGeometry x="1521.5" y="766.5" width="20" height="20" as="geometry" />
        </mxCell>
        <mxCell id="hEEuJzlS_s5F5CLPRled-35" value="" style="ellipse;whiteSpace=wrap;html=1;aspect=fixed;fillColor=#000000;" vertex="1" parent="1">
          <mxGeometry x="1521.5" y="791.5" width="20" height="20" as="geometry" />
        </mxCell>
        <mxCell id="hEEuJzlS_s5F5CLPRled-36" value="Prediction Head" style="text;html=1;align=center;verticalAlign=middle;whiteSpace=wrap;rounded=0;" vertex="1" parent="1">
          <mxGeometry x="1513.88" y="630" width="113.5" height="30" as="geometry" />
        </mxCell>
        <mxCell id="hEEuJzlS_s5F5CLPRled-39" value="" style="rounded=1;whiteSpace=wrap;html=1;rotation=90;fillColor=#f5f5f5;fontColor=#333333;strokeColor=#666666;" vertex="1" parent="1">
          <mxGeometry x="1529.75" y="724.38" width="81.75" height="30" as="geometry" />
        </mxCell>
        <mxCell id="hEEuJzlS_s5F5CLPRled-40" value="" style="ellipse;whiteSpace=wrap;html=1;aspect=fixed;fillColor=#000000;" vertex="1" parent="1">
          <mxGeometry x="1560.62" y="705" width="20" height="20" as="geometry" />
        </mxCell>
        <mxCell id="hEEuJzlS_s5F5CLPRled-41" value="" style="ellipse;whiteSpace=wrap;html=1;aspect=fixed;fillColor=#000000;" vertex="1" parent="1">
          <mxGeometry x="1560.62" y="730" width="20" height="20" as="geometry" />
        </mxCell>
        <mxCell id="hEEuJzlS_s5F5CLPRled-42" value="" style="ellipse;whiteSpace=wrap;html=1;aspect=fixed;fillColor=#000000;" vertex="1" parent="1">
          <mxGeometry x="1560.62" y="755" width="20" height="20" as="geometry" />
        </mxCell>
        <mxCell id="hEEuJzlS_s5F5CLPRled-46" value="" style="rounded=1;whiteSpace=wrap;html=1;rotation=90;fillColor=#f5f5f5;fontColor=#333333;strokeColor=#666666;" vertex="1" parent="1">
          <mxGeometry x="1593.38" y="725.26" width="32" height="30" as="geometry" />
        </mxCell>
        <mxCell id="hEEuJzlS_s5F5CLPRled-48" value="" style="ellipse;whiteSpace=wrap;html=1;aspect=fixed;fillColor=#000000;" vertex="1" parent="1">
          <mxGeometry x="1599.37" y="730" width="20" height="20" as="geometry" />
        </mxCell>
        <mxCell id="hEEuJzlS_s5F5CLPRled-51" value="&lt;font style=&quot;font-size: 9px;&quot;&gt;(B, T, H, W, C) ⟶ (B, T, C)&lt;/font&gt;" style="text;html=1;align=center;verticalAlign=middle;whiteSpace=wrap;rounded=0;" vertex="1" parent="1">
          <mxGeometry x="1165" y="760" width="160" height="30" as="geometry" />
        </mxCell>
        <mxCell id="hEEuJzlS_s5F5CLPRled-52" value="&lt;font style=&quot;font-size: 9px;&quot;&gt;(B, T, C) ⟶ (B, C)&lt;/font&gt;" style="text;html=1;align=center;verticalAlign=middle;whiteSpace=wrap;rounded=0;" vertex="1" parent="1">
          <mxGeometry x="1370" y="760" width="120" height="30" as="geometry" />
        </mxCell>
        <mxCell id="hEEuJzlS_s5F5CLPRled-53" value="&lt;font style=&quot;font-size: 9px;&quot;&gt;(B, C) ⟶ (B, 1)&lt;/font&gt;" style="text;html=1;align=center;verticalAlign=middle;whiteSpace=wrap;rounded=0;" vertex="1" parent="1">
          <mxGeometry x="1513.88" y="820" width="116.12" height="30" as="geometry" />
        </mxCell>
      </root>
    </mxGraphModel>
  </diagram>
</mxfile>
